<svg width="205" height="127" viewBox="0 0 205 127" fill="none" xmlns="http://www.w3.org/2000/svg">
<path d="M17.1773 95.3002V73.365H28.897C31.9262 73.365 34.1615 73.9081 35.6029 74.9945C37.0444 76.0599 37.7651 77.4282 37.7651 79.0995C37.7651 80.2067 37.4517 81.199 36.825 82.0764C36.2192 82.9329 35.3313 83.6119 34.1615 84.1133C32.9916 84.6146 31.5501 84.8653 29.8371 84.8653L30.4638 83.1732C32.1768 83.1732 33.6496 83.4134 34.8822 83.8939C36.1356 84.3744 37.0966 85.0742 37.7651 85.9934C38.4545 86.8917 38.7992 87.978 38.7992 89.2524C38.7992 91.1534 38.0054 92.6367 36.4177 93.7021C34.8509 94.7675 32.5529 95.3002 29.5237 95.3002H17.1773ZM24.4473 90.1298H28.897C29.7117 90.1298 30.3176 89.9835 30.7145 89.6911C31.1323 89.3986 31.3412 88.9703 31.3412 88.4063C31.3412 87.8422 31.1323 87.414 30.7145 87.1215C30.3176 86.829 29.7117 86.6828 28.897 86.6828H23.9459V81.7944H27.8943C28.7299 81.7944 29.3357 81.6586 29.7117 81.387C30.1087 81.0945 30.3071 80.6872 30.3071 80.1649C30.3071 79.6218 30.1087 79.2144 29.7117 78.9428C29.3357 78.6712 28.7299 78.5354 27.8943 78.5354H24.4473V90.1298Z" fill="#EDECE1"/>
<path d="M41.4138 95.3002V73.365H51.974C54.0213 73.365 55.7866 73.6992 57.2698 74.3677C58.774 75.0362 59.9334 75.9972 60.7481 77.2507C61.5629 78.4832 61.9702 79.9456 61.9702 81.6377C61.9702 83.3299 61.5629 84.7922 60.7481 86.0248C59.9334 87.2364 58.774 88.1661 57.2698 88.8137C55.7866 89.4613 54.0213 89.7851 51.974 89.7851H45.5188L48.8091 86.7455V95.3002H41.4138ZM54.5436 95.3002L49.1538 87.3095H56.9878L62.4403 95.3002H54.5436ZM48.8091 87.5602L45.5188 84.2073H51.504C52.5277 84.2073 53.2797 83.9775 53.7602 83.5179C54.2616 83.0583 54.5123 82.4316 54.5123 81.6377C54.5123 80.8439 54.2616 80.2171 53.7602 79.7575C53.2797 79.298 52.5277 79.0682 51.504 79.0682H45.5188L48.8091 75.7152V87.5602Z" fill="#EDECE1"/>
<path d="M62.3813 95.3002L71.9701 73.365H79.2401L88.8289 95.3002H81.1829L74.101 76.8746H76.9839L69.9019 95.3002H62.3813ZM68.0844 91.4772L69.9646 86.1501H80.0548L81.935 91.4772H68.0844Z" fill="#EDECE1"/>
<path d="M90.0092 95.3002V73.365H96.0883L107.244 86.7141H104.424V73.365H111.631V95.3002H105.552L94.3962 81.9511H97.2164V95.3002H90.0092Z" fill="#EDECE1"/>
<path d="M115.194 95.3002V73.365H126.005C128.449 73.365 130.601 73.8141 132.46 74.7124C134.32 75.5899 135.772 76.8433 136.816 78.4728C137.861 80.1022 138.383 82.0451 138.383 84.3013C138.383 86.5784 137.861 88.5421 136.816 90.1924C135.772 91.8219 134.32 93.0858 132.46 93.9841C130.601 94.8615 128.449 95.3002 126.005 95.3002H115.194ZM122.59 89.5344H125.692C126.736 89.5344 127.645 89.3359 128.418 88.939C129.212 88.5421 129.828 87.9571 130.267 87.1842C130.706 86.3903 130.925 85.4294 130.925 84.3013C130.925 83.1941 130.706 82.254 130.267 81.481C129.828 80.7081 129.212 80.1231 128.418 79.7262C127.645 79.3293 126.736 79.1308 125.692 79.1308H122.59V89.5344Z" fill="#EDECE1"/>
<path d="M140.953 96.7406V71.7116H148.576V96.7406H140.953Z" fill="#EDECE1"/>
<path d="M163.801 96.7406V79.2C163.801 76.8163 164.509 74.9161 165.926 73.4994C167.365 72.0826 169.401 71.3743 172.032 71.3743C172.841 71.3743 173.651 71.453 174.46 71.6104C175.292 71.7453 175.989 71.9702 176.552 72.285L174.73 77.5809C174.483 77.4685 174.213 77.3673 173.921 77.2773C173.628 77.1874 173.325 77.1424 173.01 77.1424C172.47 77.1424 172.032 77.3111 171.694 77.6484C171.357 77.9857 171.188 78.5254 171.188 79.2675V80.1445L171.424 83.2816V96.7406H163.801ZM161.271 84.867V79.3012H175.202V84.867H161.271Z" fill="#EDECE1"/>
<path d="M186.225 97.0779C183.684 97.0779 181.705 96.4707 180.289 95.2564C178.872 94.0195 178.163 92.1306 178.163 89.5894V74.1403H185.787V89.522C185.787 90.0842 185.933 90.5227 186.225 90.8375C186.54 91.1523 186.922 91.3097 187.372 91.3097C188.024 91.3097 188.598 91.1411 189.093 90.8038L190.914 96.0997C190.329 96.437 189.621 96.6843 188.789 96.8418C187.979 96.9992 187.125 97.0779 186.225 97.0779ZM175.634 84.867V79.3012H189.565V84.867H175.634Z" fill="#EDECE1"/>
<path d="M151.34 83.2508V64.7996H158.963V83.2508H151.34Z" fill="#EDECE1"/>
<path d="M67.174 116.484V107.555H68.2199L72.2251 114.303H71.6639L75.618 107.555H76.6639L76.6767 116.484H75.4522L75.4394 109.481H75.7328L72.2123 115.4H71.6256L68.0796 109.481H68.3985V116.484H67.174ZM89.063 111.408H93.6549V112.492H89.063V111.408ZM89.1778 115.374H94.382V116.484H87.9023V107.555H94.2034V108.665H89.1778V115.374ZM104.993 116.484V107.555H108.756C109.709 107.555 110.546 107.743 111.269 108.117C112 108.491 112.566 109.014 112.965 109.686C113.374 110.357 113.578 111.135 113.578 112.02C113.578 112.904 113.374 113.682 112.965 114.354C112.566 115.026 112 115.549 111.269 115.923C110.546 116.297 109.709 116.484 108.756 116.484H104.993ZM106.269 115.374H108.68C109.419 115.374 110.057 115.234 110.593 114.954C111.137 114.673 111.558 114.282 111.856 113.78C112.153 113.27 112.302 112.683 112.302 112.02C112.302 111.348 112.153 110.761 111.856 110.26C111.558 109.758 111.137 109.367 110.593 109.086C110.057 108.805 109.419 108.665 108.68 108.665H106.269V115.374ZM124.077 116.484V107.555H125.353V116.484H124.077ZM135.22 116.484L139.263 107.555H140.526L144.582 116.484H143.243L139.633 108.27H140.144L136.534 116.484H135.22ZM136.942 114.252L137.286 113.232H142.312L142.682 114.252H136.942Z" fill="white"/>
<path d="M160.425 45.6221C159.46 45.622 162.314 45.6122 150.006 45.6221C149.444 45.6221 148.987 46.0783 148.987 46.6411C148.987 47.2038 149.444 47.66 150.006 47.66H160.425C160.988 47.66 161.444 47.2038 161.444 46.6411C161.444 46.0782 160.988 45.6221 160.425 45.6221Z" fill="#FFAA01"/>
<path d="M156.852 44.7463H153.576C152.088 36.7526 150.121 25.0021 150.121 18.703C150.121 8.56425 152.402 3 155.217 3C158.032 3 160.313 8.56414 160.313 18.703C160.313 25.002 158.346 36.7526 156.852 44.7463Z" fill="#FCF4A0"/>
<path d="M142.838 18.3947C142.838 24.6937 147.614 36.4442 151.229 44.4379H152.366C150.743 35.6858 148.935 24.5692 148.935 18.3947C148.935 10.9876 150.15 5.57156 152.26 3.06494C146.85 4.45149 142.838 9.76679 142.838 18.3947Z" fill="#EDECE1"/>
<path d="M159.199 44.4378H158.061C159.684 35.6856 161.498 24.5691 161.498 18.3945C161.498 10.9874 160.283 5.57133 158.173 3.06482C163.578 4.45147 167.595 9.76678 167.595 18.3945C167.595 24.6935 162.813 36.4441 159.199 44.4378Z" fill="#EDECE1"/>
<path d="M149.937 44.4439C145.996 35.6739 141.653 24.6226 141.653 18.3948C141.653 11.0706 144.337 6.28869 148.005 3.74658C141.451 5.79081 136.859 10.8158 136.859 18.3948C136.859 24.7174 143.999 36.5392 149.374 44.5329C149.552 44.4795 149.741 44.4439 149.937 44.4439Z" fill="#FCF4A0"/>
<path d="M169.038 37.3999V66.6809" stroke="#4C4C4C" stroke-width="0.653107"/>
<path d="M142.123 39.8015V55.8453" stroke="#4C4C4C" stroke-width="0.653107"/>
<path d="M171.324 40.9921V48.9382" stroke="#4C4C4C" stroke-width="0.653107"/>
<path d="M144.445 41.772V46.1347" stroke="#4C4C4C" stroke-width="0.653107"/>
<path d="M166.401 46.9792L166.401 59.8565" stroke="#4C4C4C" stroke-width="0.653107"/>
<path d="M139.519 45.0792L139.519 52.116" stroke="#4C4C4C" stroke-width="0.653107"/>
<path d="M161.57 48.9381H162.218C163.067 48.9381 163.761 49.6319 163.761 50.4809V53.7125C163.761 57.3915 160.785 60.3675 157.106 60.3675H153.327C149.648 60.3675 146.672 57.3915 146.672 53.7125V50.4809C146.672 49.6319 147.366 48.9381 148.215 48.9381H148.863H151.273H151.282H159.151H159.16H161.57Z" fill="#FFAA01"/>
<path d="M171.324 51.8772V59.8233" stroke="#4C4C4C" stroke-width="0.653107"/>
<path d="M144.445 47.7533V52.1161" stroke="#4C4C4C" stroke-width="0.653107"/>
<path d="M159.513 53.7209C160.021 54.0142 160.021 54.7474 159.513 55.0407L153.635 58.4343C153.127 58.7276 152.492 58.361 152.492 57.7744L152.492 50.9871C152.492 50.4006 153.127 50.034 153.635 50.3273L159.513 53.7209Z" fill="black"/>
<path d="M160.502 44.4439C164.437 35.6739 168.78 24.6227 168.78 18.3948C168.78 11.0706 166.096 6.28869 162.428 3.74658C168.982 5.79091 173.568 10.8158 173.568 18.3948C173.568 24.7174 166.434 36.5392 161.059 44.5329C160.881 44.4795 160.698 44.4439 160.502 44.4439Z" fill="#FCF4A0"/>
</svg>
